<?xml version="1.0" standalone="no"?>
<!DOCTYPE svg PUBLIC "-//W3C//DTD SVG 20010904//EN"
 "http://www.w3.org/TR/2001/REC-SVG-20010904/DTD/svg10.dtd">
<svg version="1.0" xmlns="http://www.w3.org/2000/svg"
 width="420.000000pt" height="420.000000pt" viewBox="0 0 420.000000 420.000000"
 preserveAspectRatio="xMidYMid meet">
<metadata>
Created by potrace 1.14, written by Peter Selinger 2001-2017
</metadata>
<g transform="translate(0.000000,420.000000) scale(0.100000,-0.100000)"
fill="#000000" stroke="none">
<path d="M1903 3669 c-12 -12 -34 -23 -50 -25 -57 -6 -93 -15 -93 -24 0 -4
-22 -16 -50 -25 -59 -20 -116 -80 -126 -134 -4 -20 -21 -50 -40 -69 -22 -23
-35 -48 -39 -76 -4 -25 -18 -55 -35 -74 -22 -26 -27 -39 -23 -69 2 -22 -4 -62
-15 -93 -10 -30 -16 -68 -14 -85 7 -47 3 -99 -8 -112 -2 -2 -3 -6 -5 -10 -1
-5 -5 -16 -9 -25 -4 -9 -9 -25 -11 -35 -2 -10 -4 -18 -5 -18 -1 0 -3 -7 -5
-15 -4 -14 -6 -25 -20 -90 -3 -14 -8 -38 -10 -55 -3 -16 -7 -41 -10 -55 -3
-14 -7 -41 -10 -60 -3 -19 -7 -51 -10 -70 -2 -19 -5 -54 -6 -77 l-2 -42 -25
20 c-14 10 -28 19 -32 19 -11 0 -55 -47 -56 -59 -1 -6 -2 -12 -4 -13 -17 -22
-29 -365 -15 -433 8 -39 32 -76 48 -72 8 1 12 -16 13 -58 2 -109 19 -208 50
-302 29 -87 113 -241 137 -251 4 -2 7 -8 7 -14 0 -5 6 -15 13 -23 6 -7 23 -28
37 -47 38 -51 179 -188 194 -188 8 0 19 -7 26 -15 7 -8 16 -12 21 -9 5 3 9 0
9 -7 0 -7 3 -9 7 -6 3 4 11 3 17 -2 9 -7 91 -37 91 -33 0 1 22 -5 48 -13 47
-14 231 -15 297 -2 103 20 357 142 454 217 34 26 110 94 129 115 28 31 97 109
105 120 4 6 21 28 37 50 17 22 35 45 40 52 18 22 30 39 41 59 12 20 17 21 75
9 33 -6 41 -3 77 29 41 38 137 217 148 279 1 4 2 8 4 10 4 5 14 59 24 132 6
43 -29 106 -62 113 -7 1 -28 -4 -48 -13 -19 -8 -32 -10 -29 -4 4 5 9 22 11 37
3 15 11 52 19 82 8 30 17 71 20 90 3 19 10 51 15 70 5 19 12 49 14 65 3 17 8
41 11 55 13 57 20 131 20 220 0 101 -12 144 -63 219 -20 31 -22 42 -16 102 6
62 4 73 -20 113 -44 76 -144 169 -246 231 -52 31 -99 63 -103 71 -4 8 -13 14
-18 14 -6 0 -17 6 -24 13 -33 29 -72 54 -107 70 -16 6 -28 15 -28 20 0 4 -4 5
-10 2 -5 -3 -10 -2 -10 3 0 10 -88 39 -103 34 -5 -1 -21 7 -37 18 -15 11 -33
20 -39 20 -6 0 -11 4 -11 10 0 13 -63 31 -130 37 -30 3 -80 17 -110 31 -62 28
-71 29 -118 18 -26 -6 -44 -3 -80 16 -26 12 -48 26 -50 31 -7 15 -48 6 -69
-14z"/>
</g>
</svg>
